<svg width="151" height="20" viewBox="0 0 151 20" fill="none" xmlns="http://www.w3.org/2000/svg">
<path fill-rule="evenodd" clip-rule="evenodd" d="M9.95817 6.6944H3.30314V0H0V16.1212H3.30314L3.27166 9.63173H9.95817V16.1212H13.2763V0H9.95817V6.6944ZM27.6805 0L20.3252 10.4059V0H17.0221V16.1212H19.6874L27.0427 5.80636V16.1212H30.3458V0H27.6805ZM40.3352 0C41.3072 0 42.188 0.10626 42.9777 0.318781C43.7675 0.51612 44.4357 0.842491 44.9824 1.29789C45.5443 1.73811 45.9696 2.32255 46.2581 3.05119C46.5618 3.76465 46.7061 4.64509 46.6909 5.69251C46.6757 6.60332 46.5163 7.41545 46.2125 8.12891C45.9088 8.82719 45.4836 9.41921 44.9369 9.90497C44.4053 10.3756 43.7599 10.7399 43.0005 10.9979C42.2564 11.2408 41.4439 11.3623 40.563 11.3623H37.4421V16.1212H34.139V0H40.3352ZM40.3808 8.44769C40.7908 8.44769 41.1781 8.39456 41.5426 8.2883C41.9071 8.18204 42.226 8.01506 42.4994 7.78736C42.7727 7.55966 42.9929 7.27883 43.16 6.94487C43.327 6.61091 43.4182 6.21623 43.4334 5.76082C43.4637 4.72858 43.1904 3.99994 42.6133 3.5749C42.0362 3.14986 41.2844 2.93734 40.358 2.93734H37.4421V8.44769H40.3808ZM85.8247 0V13.2066H79.1727V0H75.8713V16.1212H87.7176V19.4403H91.0366V13.2066H89.14V0H85.8247ZM104.455 2.93734V0H92.9346V16.1212H104.455V13.2066H96.2359V9.63173H103.408V6.6944H96.2359V2.93734H104.455ZM123.279 2.93734V0H136.081V2.93734H131.34V16.1212H128.021V2.93734H123.279ZM147.286 0.318781C146.497 0.10626 145.616 0 144.645 0H138.452V16.1212H141.753V11.3623H144.872C145.753 11.3623 146.565 11.2408 147.309 10.9979C148.068 10.7399 148.713 10.3756 149.244 9.90497C149.79 9.41921 150.215 8.82719 150.519 8.12891C150.823 7.41545 150.982 6.60332 150.997 5.69251C151.012 4.64509 150.868 3.76465 150.564 3.05119C150.276 2.32255 149.851 1.73811 149.289 1.29789C148.743 0.842491 148.075 0.51612 147.286 0.318781ZM145.852 8.2883C145.487 8.39456 145.1 8.44769 144.69 8.44769H141.753V2.93734H144.668C145.593 2.93734 146.345 3.14986 146.922 3.5749C147.498 3.99994 147.772 4.72858 147.741 5.76082C147.726 6.21623 147.635 6.61091 147.468 6.94487C147.301 7.27883 147.081 7.55966 146.808 7.78736C146.535 8.01506 146.216 8.18204 145.852 8.2883ZM110.935 6.6944H117.59V0H120.908V16.1212H117.59V9.63173H110.904L110.935 16.1212H107.632V0H110.935V6.6944ZM53.1027 10.4398C54.3407 10.4398 55.3941 9.64905 55.7851 8.54505H66.5414C66.9325 9.64905 67.9858 10.4398 69.2238 10.4398C70.795 10.4398 72.0687 9.16612 72.0687 7.59492C72.0687 6.02371 70.795 4.75 69.2238 4.75C67.9844 4.75 66.9302 5.54253 66.5401 6.64844H55.7864C55.3964 5.54253 54.3421 4.75 53.1027 4.75C51.5315 4.75 50.2578 6.02371 50.2578 7.59492C50.2578 9.16612 51.5315 10.4398 53.1027 10.4398Z" fill="#453C69"/>
</svg>
